<?xml version="1.0" encoding="UTF-8"?>
<svg id="Layer_1" data-name="Layer 1" xmlns="http://www.w3.org/2000/svg" xmlns:xlink="http://www.w3.org/1999/xlink" viewBox="0 0 1396.24 656.69">
  <defs>
    <style>
      .cls-1 {
        fill: url(#radial-gradient);
      }

      .cls-1, .cls-2, .cls-3, .cls-4, .cls-5, .cls-6, .cls-7, .cls-8, .cls-9, .cls-10 {
        stroke-width: 0px;
      }

      .cls-11 {
        stroke: #fff800;
        stroke-width: 11px;
      }

      .cls-11, .cls-12 {
        fill: none;
        stroke-miterlimit: 10;
      }

      .cls-2 {
        fill: url(#linear-gradient-4);
      }

      .cls-3 {
        fill: url(#linear-gradient-2);
      }

      .cls-4 {
        fill: url(#linear-gradient-3);
      }

      .cls-12 {
        stroke: url(#linear-gradient);
        stroke-width: 14px;
      }

      .cls-5 {
        fill: #ff9;
      }

      .cls-6 {
        fill: #fff;
      }

      .cls-7 {
        fill: #fff800;
      }

      .cls-8 {
        fill: red;
      }

      .cls-9 {
        fill: #ffe000;
      }

      .cls-10 {
        fill: #0074e3;
      }
    </style>
    <radialGradient id="radial-gradient" cx="643.14" cy="336.98" fx="643.14" fy="336.98" r="271.52" gradientTransform="translate(72.35) scale(.98 1)" gradientUnits="userSpaceOnUse">
      <stop offset=".49" stop-color="#000" stop-opacity=".99"/>
      <stop offset=".79" stop-color="#946d00" stop-opacity="1"/>
      <stop offset="1" stop-color="#ffbc00"/>
    </radialGradient>
    <linearGradient id="linear-gradient" x1="546.95" y1="471.51" x2="868.32" y2="201.85" gradientUnits="userSpaceOnUse">
      <stop offset="0" stop-color="#fff800"/>
      <stop offset=".77" stop-color="#fff" stop-opacity="0"/>
    </linearGradient>
    <linearGradient id="linear-gradient-2" x1="718.54" y1="383.86" x2="655.21" y2="216.39" gradientUnits="userSpaceOnUse">
      <stop offset="0" stop-color="red"/>
      <stop offset=".52" stop-color="#ff9d00"/>
      <stop offset="1" stop-color="#ffce00"/>
    </linearGradient>
    <linearGradient id="linear-gradient-3" x1="1324.58" y1="154.04" x2="1266.08" y2="-.68" gradientUnits="userSpaceOnUse">
      <stop offset="0" stop-color="#fff" stop-opacity="0"/>
      <stop offset=".32" stop-color="#fff800" stop-opacity=".6"/>
      <stop offset=".5" stop-color="#fff800"/>
      <stop offset=".7" stop-color="#fff800" stop-opacity=".6"/>
      <stop offset="1" stop-color="#fff" stop-opacity="0"/>
    </linearGradient>
    <linearGradient id="linear-gradient-4" x1="70.21" y1="517.34" x2="120.79" y2="651.1" gradientUnits="userSpaceOnUse">
      <stop offset="0" stop-color="#fff" stop-opacity="0"/>
      <stop offset=".32" stop-color="#fff800" stop-opacity=".6"/>
      <stop offset=".5" stop-color="#fff800"/>
      <stop offset=".7" stop-color="#fff800" stop-opacity=".6"/>
      <stop offset="1" stop-color="#fff" stop-opacity="0"/>
    </linearGradient>
  </defs>
  <ellipse class="cls-1" cx="701.38" cy="336.98" rx="265.57" ry="271.52"/>
  <ellipse class="cls-11" cx="701.38" cy="336.98" rx="265.57" ry="271.52"/>
  <circle class="cls-12" cx="707.63" cy="336.68" r="202.75"/>
  <path class="cls-10" d="m902.67,317.62c1.21-1.08,2.43-2.17,3.64-3.25-1.21,1.09-2.42,2.17-3.64,3.25Z"/>
  <path class="cls-8" d="m926.17,346.8l187.64-56.87c-99.98,51.7-122.7,92.03-168.15,183.49-45.44,91.45-155.08,143.15-244.94,143.84s-132.26-35.35-193.04-37.05c-60.78-1.7-107.37,14.2-107.37,14.2l-7.35-31.1,533.2-216.52Zm12.5,83.96c.17-1.33,0-19.65-26.33-9.1-16.78,6.72-45.91,22-52.27,25.18-171.56,85.62-241.11,98.71-241.11,98.71-.27.09-.54.18-.81.27-17.68,5.9-22.06,29.09-7.46,40.68,5.1,4.04,12.34,6.98,24.23,10.21,52.32,14.2,106.38,5.62,157.41-12.68,106.56-38.22,142.16-119.89,146.34-153.26Z"/>
  <path class="cls-3" d="m1292.96.25c133.98,0,98.89,69.78,98.89,69.78,0,0-74.47,226.16-826.52,486.37,0,0-310.82,98.84-471,100.04-160.18,1.19-67.29-109.56-67.29-109.56,0,0,69.07-74.43,132.19-112.54,63.12-38.11,172.91-99.2,195.42-127.3,22.51-28.11,28.03-58.29,41.57-91.82,13.7-33.94,72.05-139.93,158.85-178.19,22.82-10.06,44.28-14.58,62.17-19.09,42.41-10.71,86.64-12.06,129.65-4.08,28.65,5.31,62.19,13.11,82.97,23.17,40.81,19.76,80.12,30.89,103.45,29.92C1019.65,63.37,1171.01.25,1292.96.25Zm-38.7,116.11c.6-22.03-26.8-65.5-124.91-60.37-45.49,2.38-104.66,16.09-155.66,22.92-110.63,14.81-132.67-59.02-280.34-63.19,0,0-146.76-5.95-246.64,124.21-15.76,20.53-27.86,43.62-36.19,68.12-10.47,30.81-27.66,79.3-37.53,95.87-12.21,20.52-44.06,52.99-92.2,80.31-48.39,27.46-140.97,106.81-140.97,159.34,0,55.21,77.8,55.42,116.7,54.64,0,0,232.65,7.16,617-189,384.34-196.16,380.21-273.17,380.74-292.85Z"/>
  <path class="cls-9" d="m1129.34,55.99c98.12-5.13,125.51,38.33,124.91,60.37-.54,19.69,3.6,96.69-380.74,292.85-384.35,196.16-617,189-617,189-38.89.78-116.7.57-116.7-54.64s92.58-131.89,140.97-159.34c48.14-27.31,79.99-59.79,92.2-80.31,9.87-16.57,27.05-65.05,37.53-95.87,8.32-24.5,20.43-47.59,36.19-68.12C546.59,9.78,693.35,15.73,693.35,15.73c147.67,4.17,169.7,78,280.34,63.19,51-6.84,110.18-20.55,155.66-22.92Zm-267.49,349.16c344.17-175.66,333.45-259.25,333.45-276.88,0-20.25-35.62-47.34-111.3-44.21-75.68,3.13-83.42,11.14-139.39,11.46-103.01.6-95.87-61.93-245.92-66.69,0,0-11.09-.74-29.12.72-113.83,9.22-212.02,83.54-252.6,190.28-6.53,17.17-13.2,35.75-15.4,45.4-4.76,20.84-25.01,77.41-77.41,109.56-52.4,32.15-126.24,98.84-126.24,145.88,0,49.44,69.67,49.62,104.5,48.93,0,0,215.25,11.21,559.42-164.44Z"/>
  <path class="cls-7" d="m1195.31,128.27c0,17.64,10.72,101.23-333.45,276.88-317.58,162.09-525.4,165.06-555.61,164.56-3.03-.05-6.06-.07-9.09-.02-36.12.48-99.23-1.96-99.23-49.02s73.84-113.73,126.24-145.88c52.4-32.15,72.64-88.72,77.41-109.56,2.2-9.65,8.87-28.22,15.4-45.4,40.58-106.74,138.78-181.06,252.6-190.28,18.03-1.46,29.12-.72,29.12-.72,150.05,4.76,142.91,67.29,245.92,66.69,55.97-.32,63.71-8.34,139.39-11.46,75.68-3.13,111.3,23.97,111.3,44.21Zm-63.8,24.07c6.17-51.85-83.58-55.92-155.03-48.18s-98.53-15.02-165.73-45.85c-8.44-3.87-42.17-14.29-63.22-16.97-65.5-8.34-124.45-6.55-181.65,22.82-107.94,55.41-143.12,148.37-152.74,188.39-4.14,17.22-9.62,34.1-16.57,50.39-1.78,4.16-3.47,7.96-4.82,10.83-17.57,37.22-64.29,66.47-89.61,96.76-30.37,36.32-59.84,89.61-28.28,111.65,31.56,22.03,214.96,58.35,518.04-92.29,303.08-150.65,333.45-225.67,339.62-277.53Z"/>
  <path class="cls-5" d="m976.48,104.15c71.45-7.74,161.21-3.67,155.03,48.18-6.17,51.85-36.54,126.88-339.62,277.53-303.08,150.65-486.48,114.33-518.04,92.29-31.56-22.03-2.08-75.32,28.28-111.65,25.32-30.29,72.05-59.54,89.61-96.76,1.35-2.87,3.04-6.67,4.82-10.83,6.95-16.29,12.43-33.17,16.57-50.39,9.62-40.02,44.81-132.98,152.74-188.39,57.2-29.37,116.15-31.15,181.65-22.82,21.05,2.68,54.78,13.1,63.22,16.97,67.2,30.83,94.28,53.59,165.73,45.85Zm107.18,71.45c4.76-39.9-39.3-47.64-107.78-45.85s-93.13-20.39-93.13-20.39c-36.72-29.7-81.11-70.3-205.78-67.73-207.1,4.27-255.83,208.54-263.7,250.81-.63,3.39-1.1,6.81-1.45,10.23-.61,5.76-3.23,20.66-14.71,40.85-14.89,26.2-94.68,83.86-94.68,126.83,0,29.77,33.94,44.66,90.51,45.85,56.57,1.19,234.01-25.01,429.91-123.85,195.9-98.84,256.04-176.85,260.81-216.74Z"/>
  <path class="cls-6" d="m975.89,129.76c68.48-1.79,112.54,5.95,107.78,45.85s-64.9,117.9-260.81,216.74c-195.9,98.84-373.35,125.04-429.91,123.85-56.57-1.19-90.51-16.08-90.51-45.85,0-42.97,79.79-100.63,94.68-126.83,11.47-20.19,14.1-35.08,14.71-40.85.36-3.42.82-6.84,1.45-10.23,7.87-42.28,56.6-246.55,263.7-250.81,124.67-2.57,169.06,38.03,205.78,67.73,0,0,24.66,22.18,93.13,20.39Zm-49.11,127.62c8.57-18.94,9.97-40.46,3.17-60.1-2.1-6.04-4.99-11.99-9-16.89-56.71-69.38-126.9-116.12-218.67-116.12-146.84,0-265.87,118.01-265.87,270.93,0,20,2.04,39.5,5.9,58.29,5.7,27.69,26.6,49.93,53.95,57.1,13.67,3.58,30.83,5.29,52.1,3.11,70.37-7.2,324.3-76.79,378.43-196.31Z"/>
  <path class="cls-4" d="m1206.73,32.29c5.57-2.12,11.26-3.83,16.99-5.38,5.73-1.55,11.52-2.88,17.36-4.05,11.67-2.3,23.53-3.86,35.57-4.52,3.01-.15,6.03-.25,9.07-.29,3.04-.04,6.08.04,9.14.16,6.13.22,12.3.86,18.53,1.95,6.24,1.09,12.52,2.79,18.81,5.39.79.29,1.57.68,2.35,1.06l2.33,1.15,2.31,1.33,1.15.67,1.13.77,2.25,1.56c.74.57,1.46,1.19,2.18,1.79l1.08.91,1.03,1.02c.68.69,1.37,1.37,2.03,2.08,1.23,1.56,2.52,3.05,3.52,4.83.51.87,1.09,1.69,1.5,2.62.43.92.86,1.84,1.27,2.77,1.45,3.76,2.44,7.73,2.6,11.56.29,3.87-.13,7.53-.71,11.06-.31,1.75-.77,3.41-1.17,5.12-.46,1.65-1.04,3.23-1.58,4.84-4.75,12.5-11.86,22.77-19.56,32.18-7.74,9.39-16.23,17.85-25.19,25.69-1.11.99-2.24,1.96-3.39,2.9-1.14.95-2.27,1.92-3.43,2.85-2.29,1.89-4.61,3.74-6.99,5.52-4.68,3.64-9.55,7.04-14.53,10.3,3.43-4.88,7.06-9.52,10.57-14.23,1.76-2.35,3.57-4.65,5.29-7.02,1.73-2.36,3.56-4.62,5.24-7,6.93-9.33,13.68-18.68,19.67-28.25l2.23-3.58c.75-1.19,1.39-2.42,2.09-3.62,1.44-2.39,2.7-4.82,3.98-7.24,2.38-4.88,4.6-9.74,6.02-14.57,1.45-4.79,2.18-9.48,1.73-13.46-.1-2.03-.66-3.78-1.29-5.47-.7-1.66-1.74-3.15-2.94-4.62-2.57-2.88-6.29-5.49-10.78-7.48-4.44-2.09-9.47-3.61-14.68-4.9-5.22-1.29-10.67-2.17-16.2-2.96-2.77-.38-5.56-.67-8.37-.97-2.81-.3-5.64-.55-8.48-.75-11.36-.86-22.91-1.21-34.54-1.41-11.64-.22-23.35-.19-35.24-.32Z"/>
  <path class="cls-2" d="m171.24,621.5c-4.69,1.96-9.49,3.54-14.34,4.97-4.85,1.44-9.75,2.67-14.69,3.75-9.89,2.14-19.95,3.61-30.2,4.28-10.25.64-20.69.52-31.4-1.31-5.35-.93-10.79-2.33-16.24-4.61-5.42-2.26-10.99-5.66-15.66-10.83-2.26-2.67-4.24-5.72-5.61-9.07-1.28-3.35-2.14-6.89-2.28-10.26-.4-6.83,1.04-12.97,3.05-18.37,4.15-10.81,10.32-19.53,16.97-27.49,6.69-7.94,14.01-15.04,21.76-21.57,3.9-3.23,7.82-6.4,11.94-9.34,4.05-3,8.28-5.79,12.6-8.42-2.79,4.26-5.77,8.28-8.65,12.36-1.45,2.03-2.94,4.01-4.35,6.06-1.42,2.03-2.94,3.98-4.32,6.02-5.72,8.01-11.3,16-16.24,24.12l-1.84,3.03c-.62,1.01-1.15,2.05-1.72,3.06-1.19,2.02-2.2,4.08-3.25,6.11-1.98,4.08-3.73,8.17-4.9,12.12-1.17,3.95-1.68,7.74-1.34,10.82.28,3.13,1.36,5.4,3.23,7.65l.8.82.39.42.47.39.94.8c.36.25.72.49,1.07.75l.53.39.59.35,1.18.72c.87.43,1.69.9,2.61,1.32,3.63,1.69,7.78,3.02,12.12,4.1,8.72,2.15,18.16,3.33,27.7,4.19,9.57.85,19.33,1.28,29.17,1.65,9.86.38,19.79.58,29.91,1.01Z"/>
</svg>